<svg xmlns="http://www.w3.org/2000/svg" xmlns:xlink="http://www.w3.org/1999/xlink" width="1024" zoomAndPan="magnify" viewBox="0 0 768 767.999994" height="1024" preserveAspectRatio="xMidYMid meet" version="1.0"><rect x="-76.8" width="921.6" fill="#ffffff" y="-76.799999" height="921.599993" fill-opacity="1"/><rect x="-76.8" width="921.6" fill="#ff66c4" y="-76.799999" height="921.599993" fill-opacity="1"/><path fill="#f9f9f9" d="M 471.574219 322.585938 C 477.433594 314.007812 475.710938 302.15625 467.644531 295.605469 C 459.4375 288.9375 447.730469 289.667969 440.425781 297.28125 L 325.308594 417.089844 C 322.011719 417.605469 313.070312 419.421875 304.328125 424.984375 C 294.234375 431.410156 282.71875 444.082031 285.191406 467.976562 C 286.191406 477.664062 283.933594 485.363281 278.492188 490.863281 C 265.707031 503.78125 239.429688 501.488281 239.15625 501.464844 C 237.472656 501.375 235.84375 502.363281 235.328125 504.011719 C 234.808594 505.652344 235.507812 507.4375 237.007812 508.285156 C 239.398438 509.648438 280.101562 532.484375 314.421875 532.484375 C 328.578125 532.484375 341.65625 528.597656 350.5 517.710938 C 375.988281 486.34375 377.847656 465.394531 377.832031 459.851562 Z M 344.828125 513.097656 C 325.042969 537.445312 276.855469 519.292969 253.597656 508.46875 C 263.25 507.410156 275.441406 504.335938 283.667969 496.03125 C 290.742188 488.898438 293.707031 479.203125 292.460938 467.226562 C 288.882812 432.597656 318.851562 425.554688 325.996094 424.375 L 370.503906 460.53125 C 370.308594 465.6875 367.898438 484.695312 344.824219 513.097656 Z M 332.460938 420.199219 L 445.695312 302.351562 C 450.359375 297.503906 457.804688 297.035156 463.03125 301.28125 C 468.167969 305.453125 469.265625 313 465.53125 318.460938 L 373.363281 453.425781 Z M 311.957031 327.667969 C 322.042969 327.667969 330.242188 319.464844 330.242188 309.382812 C 330.242188 299.300781 322.042969 291.097656 311.957031 291.097656 C 301.871094 291.097656 293.671875 299.300781 293.671875 309.382812 C 293.671875 319.464844 301.871094 327.667969 311.957031 327.667969 Z M 311.957031 298.410156 C 318.003906 298.410156 322.925781 303.332031 322.925781 309.382812 C 322.925781 315.433594 318.003906 320.351562 311.957031 320.351562 C 305.90625 320.351562 300.984375 315.433594 300.984375 309.382812 C 300.984375 303.332031 305.90625 298.410156 311.957031 298.410156 Z M 403.382812 280.125 C 403.382812 270.042969 395.183594 261.839844 385.097656 261.839844 C 375.011719 261.839844 366.8125 270.042969 366.8125 280.125 C 366.8125 290.207031 375.011719 298.410156 385.097656 298.410156 C 395.183594 298.410156 403.382812 290.207031 403.382812 280.125 Z M 374.125 280.125 C 374.125 274.074219 379.046875 269.152344 385.097656 269.152344 C 391.148438 269.152344 396.070312 274.074219 396.070312 280.125 C 396.070312 286.175781 391.148438 291.097656 385.097656 291.097656 C 379.046875 291.097656 374.125 286.175781 374.125 280.125 Z M 447.269531 484.921875 C 447.269531 474.839844 439.066406 466.636719 428.984375 466.636719 C 418.898438 466.636719 410.699219 474.839844 410.699219 484.921875 C 410.699219 495.003906 418.898438 503.207031 428.984375 503.207031 C 439.066406 503.207031 447.269531 495.003906 447.269531 484.921875 Z M 418.011719 484.921875 C 418.011719 478.871094 422.933594 473.949219 428.984375 473.949219 C 435.03125 473.949219 439.953125 478.871094 439.953125 484.921875 C 439.953125 490.972656 435.03125 495.894531 428.984375 495.894531 C 422.933594 495.894531 418.011719 490.972656 418.011719 484.921875 Z M 526.972656 389.382812 C 520.675781 396.640625 511.546875 400.800781 501.925781 400.800781 L 431.445312 400.800781 L 436.4375 393.488281 L 501.925781 393.488281 C 509.425781 393.488281 516.546875 390.246094 521.453125 384.589844 C 526.308594 378.992188 528.503906 371.59375 527.464844 364.28125 C 524.582031 343.929688 516.917969 324.929688 504.046875 306.1875 C 474.226562 262.769531 427.691406 238.074219 379.597656 240.007812 C 301.371094 243.226562 239.890625 309.386719 242.558594 387.488281 C 243.585938 417.894531 254.820312 446.84375 274.367188 470.570312 C 274.628906 474.992188 273.941406 477.996094 272.929688 480.046875 C 249.78125 454.238281 236.40625 421.878906 235.242188 387.738281 C 232.441406 305.632812 297.0625 236.082031 379.296875 232.703125 C 429.996094 230.601562 478.816406 256.542969 510.074219 302.046875 C 523.417969 321.46875 531.703125 342.0625 534.710938 363.253906 C 536.046875 372.664062 533.222656 382.191406 526.972656 389.386719 Z M 477.332031 484.921875 C 477.332031 512.46875 454.804688 532.464844 423.769531 532.464844 L 390.65625 532.464844 C 378.800781 532.464844 367.011719 531.070312 355.464844 528.449219 C 356.683594 527.242188 357.890625 526.011719 359.011719 524.628906 C 359.691406 523.796875 360.296875 522.992188 360.945312 522.171875 C 370.71875 524.125 380.667969 525.148438 390.65625 525.148438 L 423.769531 525.148438 C 450.570312 525.148438 470.019531 508.234375 470.019531 484.921875 C 470.019531 462.738281 451.902344 444.691406 429.640625 444.691406 L 422.304688 444.691406 C 416.0625 444.691406 410.242188 442.371094 405.691406 438.511719 L 409.820312 432.464844 C 413.144531 435.539062 417.566406 437.375 422.304688 437.375 L 429.640625 437.375 C 455.941406 437.375 477.332031 458.703125 477.332031 484.921875 Z M 264.414062 382.523438 C 264.414062 392.605469 272.613281 400.808594 282.699219 400.808594 C 292.785156 400.808594 300.984375 392.605469 300.984375 382.523438 C 300.984375 372.441406 292.785156 364.238281 282.699219 364.238281 C 272.613281 364.238281 264.414062 372.441406 264.414062 382.523438 Z M 293.671875 382.523438 C 293.671875 388.574219 288.75 393.496094 282.699219 393.496094 C 276.648438 393.496094 271.726562 388.574219 271.726562 382.523438 C 271.726562 376.476562 276.648438 371.554688 282.699219 371.554688 C 288.75 371.554688 293.671875 376.476562 293.671875 382.523438 Z M 293.671875 382.523438 " fill-opacity="1" fill-rule="nonzero"/></svg>